<svg width="40" height="25" viewBox="0 0 40 25" fill="none" xmlns="http://www.w3.org/2000/svg">
<g filter="url(#filter0_d)">
<path fill-rule="evenodd" clip-rule="evenodd" d="M38.1343 11.2131L38.1179 9.00381L38.1129 9.00389L38.1115 8.81118C38.1754 7.61032 37.4879 4.48944 37.4879 4.48944C37.0248 3.26161 35.5317 2.70971 34.3024 2.46203C34 2.09641 33.5088 1.85719 32.953 1.85861L29.6629 1.86735C29.2212 1.86844 28.82 2.02253 28.5259 2.27095L28.0448 2.27215L26.5824 2.27579L26.0218 0.835831L25.5233 0.836956L25.7317 2.27804L16.9913 2.30032C16.6932 2.05348 16.2912 1.90102 15.8483 1.90196L7.80876 1.92244C7.31592 1.92368 6.87503 2.115 6.57398 2.41482C5.60177 2.5692 4.11588 2.97418 4.02459 4.01761L4.07158 10.3193L4.11873 16.6202C4.2255 17.6632 5.71757 18.06 6.69176 18.2098C6.9975 18.5085 7.44094 18.6976 7.93399 18.6964L15.9734 18.6759C16.4165 18.6747 16.8162 18.5205 17.1104 18.2721L25.9084 18.2495L25.7373 19.572L26.2356 19.5709L26.7291 18.2474L28.1638 18.2437L28.6531 18.2513C28.9521 18.4938 29.349 18.6427 29.7881 18.6415L33.0783 18.6327C33.526 18.6315 33.9321 18.4737 34.2274 18.22C35.4844 17.9855 37.1076 17.4349 37.575 16.1386C37.575 16.1386 38.2156 13.0147 38.1339 11.8143L38.1295 11.2132L38.1343 11.2131Z" fill="url(#paint0_linear)"/>
<path fill-rule="evenodd" clip-rule="evenodd" d="M38.1343 11.2131L38.1179 9.00381L38.1129 9.00389L38.1115 8.81118C38.1754 7.61032 37.4879 4.48944 37.4879 4.48944C37.0248 3.26161 35.5317 2.70971 34.3024 2.46203C34 2.09641 33.5088 1.85719 32.953 1.85861L29.6629 1.86735C29.2212 1.86844 28.82 2.02253 28.5259 2.27095L28.0448 2.27215L26.5824 2.27579L26.0218 0.835831L25.5233 0.836956L25.7317 2.27804L16.9913 2.30032C16.6932 2.05348 16.2912 1.90102 15.8483 1.90196L7.80876 1.92244C7.31592 1.92368 6.87503 2.115 6.57398 2.41482C5.60177 2.5692 4.11588 2.97418 4.02459 4.01761L4.07158 10.3193L4.11873 16.6202C4.2255 17.6632 5.71757 18.06 6.69176 18.2098C6.9975 18.5085 7.44094 18.6976 7.93399 18.6964L15.9734 18.6759C16.4165 18.6747 16.8162 18.5205 17.1104 18.2721L25.9084 18.2495L25.7373 19.572L26.2356 19.5709L26.7291 18.2474L28.1638 18.2437L28.6531 18.2513C28.9521 18.4938 29.349 18.6427 29.7881 18.6415L33.0783 18.6327C33.526 18.6315 33.9321 18.4737 34.2274 18.22C35.4844 17.9855 37.1076 17.4349 37.575 16.1386C37.575 16.1386 38.2156 13.0147 38.1339 11.8143L38.1295 11.2132L38.1343 11.2131Z" stroke="#0B1829" stroke-opacity="0.11" stroke-width="0.2"/>
</g>
<g filter="url(#filter1_d)">
<rect width="2.21959" height="4.6857" rx="1" transform="matrix(0.999913 0.013194 -0.00940062 0.999956 4.95959 3.81348)" fill="#FF0000"/>
<rect x="0.0495256" y="0.0506575" width="2.11959" height="4.5857" rx="0.95" transform="matrix(0.999913 0.013194 -0.00940062 0.999956 4.96008 3.81283)" stroke="#474848" stroke-width="0.1"/>
</g>
<rect x="37.031" y="7.7749" width="1.10972" height="5.8575" rx="0.554859" transform="rotate(-1.36225 37.031 7.7749)" fill="#242E42"/>
<rect x="37.031" y="7.7749" width="1.10972" height="5.8575" rx="0.554859" transform="rotate(-1.36225 37.031 7.7749)" fill="#474848"/>
<g filter="url(#filter2_d)">
<rect width="2.21959" height="4.6857" rx="1" transform="matrix(0.999913 0.013194 -0.00940062 0.999956 4.88245 12.0132)" fill="#FF0000"/>
<rect x="0.0495256" y="0.0506575" width="2.11959" height="4.5857" rx="0.95" transform="matrix(0.999913 0.013194 -0.00940062 0.999956 4.88293 12.0125)" stroke="#474848" stroke-width="0.1"/>
</g>
<path fill-rule="evenodd" clip-rule="evenodd" d="M29.6829 10.9451L29.6739 10.9448C29.558 13.261 29.2235 14.7589 28.8167 15.724C28.3682 16.7874 27.8329 17.2042 27.4099 17.3547C27.4036 17.3571 27.3974 17.3582 27.3918 17.3604C27.3115 17.388 27.2363 17.4061 27.1651 17.4167C26.8718 17.4627 26.6746 17.3897 26.6746 17.3897L21.6684 15.296C22.3687 14.8019 22.6692 11.4812 22.7597 10.2265C22.7337 8.96739 22.6029 5.6335 21.9297 5.09269L27.0342 3.34565C27.0342 3.34565 27.235 3.28587 27.5253 3.3526C27.5944 3.36755 27.6666 3.39061 27.744 3.42195C27.7508 3.42451 27.7591 3.4275 27.7665 3.4305C28.181 3.61064 28.6941 4.06366 29.0882 5.1561C29.4441 6.14785 29.7013 7.66557 29.6984 9.98493L29.7074 9.98517C29.7038 10.1487 29.6992 10.3081 29.6945 10.465C29.6911 10.6217 29.6878 10.7813 29.6829 10.9451V10.9451Z" fill="#474848"/>
<path fill-rule="evenodd" clip-rule="evenodd" d="M14.0594 5.04055L14.3547 11.62L14.5331 15.5979L14.5444 15.8472C13.6466 17.2278 11.3355 17.3778 9.79513 17.3082L9.19064 3.83905C10.7197 3.65848 13.0371 3.64098 14.0555 4.95192L14.0594 5.04055Z" fill="#474848"/>
<path fill-rule="evenodd" clip-rule="evenodd" d="M13.828 3.46814C15.1071 3.43773 24.7115 3.20933 24.7115 3.20933C24.7115 3.20933 20.0733 5.66329 18.8 5.69357C17.5266 5.72385 12.5488 3.49856 13.828 3.46814Z" fill="#474848"/>
<path fill-rule="evenodd" clip-rule="evenodd" d="M14.1763 17.8648C15.4554 17.8344 25.0598 17.606 25.0598 17.606C25.0598 17.606 20.1504 15.3791 18.877 15.4093C17.6037 15.4396 12.8971 17.8952 14.1763 17.8648Z" fill="#474848"/>
<defs>
<filter id="filter0_d" x="2.92456" y="0.735596" width="36.3165" height="20.9366" filterUnits="userSpaceOnUse" color-interpolation-filters="sRGB">
<feFlood flood-opacity="0" result="BackgroundImageFix"/>
<feColorMatrix in="SourceAlpha" type="matrix" values="0 0 0 0 0 0 0 0 0 0 0 0 0 0 0 0 0 0 127 0"/>
<feOffset dy="1"/>
<feGaussianBlur stdDeviation="0.5"/>
<feColorMatrix type="matrix" values="0 0 0 0 0 0 0 0 0 0 0 0 0 0 0 0 0 0 0.26 0"/>
<feBlend mode="normal" in2="BackgroundImageFix" result="effect1_dropShadow"/>
<feBlend mode="normal" in="SourceGraphic" in2="effect1_dropShadow" result="shape"/>
</filter>
<filter id="filter1_d" x="0.924927" y="3.82666" width="10.2447" height="12.6886" filterUnits="userSpaceOnUse" color-interpolation-filters="sRGB">
<feFlood flood-opacity="0" result="BackgroundImageFix"/>
<feColorMatrix in="SourceAlpha" type="matrix" values="0 0 0 0 0 0 0 0 0 0 0 0 0 0 0 0 0 0 127 0"/>
<feOffset dy="4"/>
<feGaussianBlur stdDeviation="2"/>
<feColorMatrix type="matrix" values="0 0 0 0 0 0 0 0 0 0 0 0 0 0 0 0 0 0 0.25 0"/>
<feBlend mode="normal" in2="BackgroundImageFix" result="effect1_dropShadow"/>
<feBlend mode="normal" in="SourceGraphic" in2="effect1_dropShadow" result="shape"/>
</filter>
<filter id="filter2_d" x="0.847778" y="12.0264" width="10.2447" height="12.6886" filterUnits="userSpaceOnUse" color-interpolation-filters="sRGB">
<feFlood flood-opacity="0" result="BackgroundImageFix"/>
<feColorMatrix in="SourceAlpha" type="matrix" values="0 0 0 0 0 0 0 0 0 0 0 0 0 0 0 0 0 0 127 0"/>
<feOffset dy="4"/>
<feGaussianBlur stdDeviation="2"/>
<feColorMatrix type="matrix" values="0 0 0 0 0 0 0 0 0 0 0 0 0 0 0 0 0 0 0.25 0"/>
<feBlend mode="normal" in2="BackgroundImageFix" result="effect1_dropShadow"/>
<feBlend mode="normal" in="SourceGraphic" in2="effect1_dropShadow" result="shape"/>
</filter>
<linearGradient id="paint0_linear" x1="-4.68722" y1="8.8817" x2="38.6903" y2="9.88465" gradientUnits="userSpaceOnUse">
<stop stop-color="#1EC639"/>
<stop offset="0.625" stop-color="#00FF29"/>
<stop offset="1" stop-color="#1EC639"/>
</linearGradient>
</defs>
</svg>
