<svg width="40" height="25" viewBox="0 0 40 25" fill="none" xmlns="http://www.w3.org/2000/svg">
<g filter="url(#filter0_d)">
<path fill-rule="evenodd" clip-rule="evenodd" d="M38.1342 11.2132L38.1178 9.00392L38.1128 9.004L38.1114 8.81129C38.1753 7.61043 37.4878 4.48955 37.4878 4.48955C37.0247 3.26172 35.5316 2.70982 34.3023 2.46214C33.9999 2.09652 33.5087 1.8573 32.9529 1.85872L29.6628 1.86746C29.2211 1.86855 28.8199 2.02264 28.5258 2.27106L28.0447 2.27226L26.5823 2.2759L26.0217 0.835938L25.5232 0.837063L25.7316 2.27815L16.9912 2.30043C16.6931 2.05359 16.2911 1.90113 15.8482 1.90207L7.80871 1.92255C7.31587 1.92379 6.87498 2.11511 6.57393 2.41493C5.60172 2.56931 4.11583 2.97429 4.02454 4.01772L4.07153 10.3194L4.11868 16.6203C4.22545 17.6633 5.71752 18.0601 6.69171 18.2099C6.99745 18.5086 7.44089 18.6977 7.93394 18.6965L15.9733 18.676C16.4164 18.6748 16.8161 18.5206 17.1103 18.2722L25.9083 18.2496L25.7372 19.5721L26.2355 19.571L26.729 18.2475L28.1637 18.2438L28.653 18.2514C28.952 18.4939 29.3489 18.6428 29.788 18.6416L33.0782 18.6328C33.5259 18.6316 33.932 18.4738 34.2273 18.2201C35.4843 17.9856 37.1075 17.435 37.5749 16.1387C37.5749 16.1387 38.2155 13.0148 38.1338 11.8144L38.1294 11.2133L38.1342 11.2132Z" fill="url(#paint0_linear)"/>
<path fill-rule="evenodd" clip-rule="evenodd" d="M38.1342 11.2132L38.1178 9.00392L38.1128 9.004L38.1114 8.81129C38.1753 7.61043 37.4878 4.48955 37.4878 4.48955C37.0247 3.26172 35.5316 2.70982 34.3023 2.46214C33.9999 2.09652 33.5087 1.8573 32.9529 1.85872L29.6628 1.86746C29.2211 1.86855 28.8199 2.02264 28.5258 2.27106L28.0447 2.27226L26.5823 2.2759L26.0217 0.835938L25.5232 0.837063L25.7316 2.27815L16.9912 2.30043C16.6931 2.05359 16.2911 1.90113 15.8482 1.90207L7.80871 1.92255C7.31587 1.92379 6.87498 2.11511 6.57393 2.41493C5.60172 2.56931 4.11583 2.97429 4.02454 4.01772L4.07153 10.3194L4.11868 16.6203C4.22545 17.6633 5.71752 18.0601 6.69171 18.2099C6.99745 18.5086 7.44089 18.6977 7.93394 18.6965L15.9733 18.676C16.4164 18.6748 16.8161 18.5206 17.1103 18.2722L25.9083 18.2496L25.7372 19.5721L26.2355 19.571L26.729 18.2475L28.1637 18.2438L28.653 18.2514C28.952 18.4939 29.3489 18.6428 29.788 18.6416L33.0782 18.6328C33.5259 18.6316 33.932 18.4738 34.2273 18.2201C35.4843 17.9856 37.1075 17.435 37.5749 16.1387C37.5749 16.1387 38.2155 13.0148 38.1338 11.8144L38.1294 11.2133L38.1342 11.2132Z" stroke="#0B1829" stroke-opacity="0.11" stroke-width="0.2"/>
</g>
<g filter="url(#filter1_d)">
<path d="M6.17908 3.82957L5.95951 3.82667C5.40727 3.81938 4.95539 4.26117 4.95019 4.81343L4.92495 7.49901C4.91976 8.05127 5.36322 8.50488 5.91546 8.51216L6.13503 8.51506C6.68727 8.52235 7.13915 8.08056 7.14434 7.5283L7.16959 4.84272C7.17478 4.29046 6.73132 3.83685 6.17908 3.82957Z" fill="white"/>
<path d="M6.17864 3.87945L5.95907 3.87655C5.43445 3.86963 5.00516 4.28932 5.00022 4.81397L4.97498 7.49955C4.97005 8.0242 5.39134 8.45512 5.91596 8.46205L6.13554 8.46494C6.66016 8.47187 7.08945 8.05217 7.09438 7.52752L7.11963 4.84194C7.12456 4.31729 6.70327 3.88637 6.17864 3.87945Z" stroke="#474848" stroke-width="0.1"/>
</g>
<path d="M37.5857 7.76171L37.5857 7.76171C37.2794 7.769 37.0369 8.02325 37.0442 8.3296L37.1571 13.076C37.1644 13.3824 37.4186 13.6248 37.725 13.6176L37.725 13.6176C38.0313 13.6103 38.2738 13.356 38.2665 13.0497L38.1536 8.30322C38.1463 7.99687 37.8921 7.75443 37.5857 7.76171Z" fill="#242E42"/>
<path d="M37.5857 7.76171L37.5857 7.76171C37.2794 7.769 37.0369 8.02325 37.0442 8.3296L37.1571 13.076C37.1644 13.3824 37.4186 13.6248 37.725 13.6176L37.725 13.6176C38.0313 13.6103 38.2738 13.356 38.2665 13.0497L38.1536 8.30322C38.1463 7.99687 37.8921 7.75443 37.5857 7.76171Z" fill="#474848"/>
<g filter="url(#filter2_d)">
<path d="M6.10193 12.0293L5.88236 12.0264C5.33012 12.0191 4.87824 12.4609 4.87305 13.0131L4.8478 15.6987C4.84261 16.251 5.28607 16.7046 5.83831 16.7119L6.05788 16.7148C6.61012 16.7221 7.062 16.2803 7.0672 15.728L7.09244 13.0424C7.09763 12.4902 6.65417 12.0366 6.10193 12.0293Z" fill="white"/>
<path d="M6.1015 12.0792L5.88192 12.0763C5.3573 12.0693 4.92801 12.489 4.92308 13.0137L4.89783 15.6993C4.8929 16.2239 5.31419 16.6548 5.83882 16.6618L6.05839 16.6647C6.58301 16.6716 7.0123 16.2519 7.01723 15.7272L7.04248 13.0416C7.04741 12.517 6.62612 12.0861 6.1015 12.0792Z" stroke="#474848" stroke-width="0.1"/>
</g>
<path fill-rule="evenodd" clip-rule="evenodd" d="M29.683 10.9451L29.674 10.9448C29.5581 13.261 29.2236 14.7589 28.8168 15.724C28.3683 16.7874 27.833 17.2042 27.41 17.3547C27.4037 17.3571 27.3975 17.3582 27.3919 17.3604C27.3116 17.388 27.2364 17.4061 27.1652 17.4167C26.8719 17.4627 26.6747 17.3897 26.6747 17.3897L21.6685 15.296C22.3688 14.8019 22.6693 11.4812 22.7598 10.2265C22.7338 8.96741 22.603 5.63352 21.9298 5.09271L27.0343 3.34567C27.0343 3.34567 27.2351 3.28589 27.5254 3.35262C27.5945 3.36757 27.6667 3.39063 27.7441 3.42197C27.7509 3.42453 27.7592 3.42752 27.7666 3.43052C28.1811 3.61066 28.6942 4.06368 29.0883 5.15612C29.4442 6.14787 29.7014 7.66559 29.6985 9.98495L29.7075 9.98519C29.7039 10.1487 29.6993 10.3081 29.6946 10.465C29.6912 10.6217 29.6879 10.7813 29.683 10.9451Z" fill="#474848"/>
<path fill-rule="evenodd" clip-rule="evenodd" d="M14.0594 5.04047L14.3547 11.6199L14.5331 15.5978L14.5444 15.8471C13.6466 17.2277 11.3355 17.3777 9.79516 17.3081L9.19067 3.83897C10.7197 3.6584 13.0371 3.6409 14.0555 4.95184L14.0594 5.04047Z" fill="#474848"/>
<path fill-rule="evenodd" clip-rule="evenodd" d="M13.828 3.46804C15.1071 3.43763 24.7115 3.20923 24.7115 3.20923C24.7115 3.20923 20.0733 5.66319 18.8 5.69347C17.5266 5.72375 12.5488 3.49846 13.828 3.46804Z" fill="#474848"/>
<path fill-rule="evenodd" clip-rule="evenodd" d="M14.1763 17.8647C15.4554 17.8343 25.0598 17.6059 25.0598 17.6059C25.0598 17.6059 20.1504 15.379 18.877 15.4092C17.6037 15.4395 12.8971 17.8951 14.1763 17.8647Z" fill="#474848"/>
<defs>
<filter id="filter0_d" x="2.92444" y="0.73584" width="36.3165" height="20.9366" filterUnits="userSpaceOnUse" color-interpolation-filters="sRGB">
<feFlood flood-opacity="0" result="BackgroundImageFix"/>
<feColorMatrix in="SourceAlpha" type="matrix" values="0 0 0 0 0 0 0 0 0 0 0 0 0 0 0 0 0 0 127 0"/>
<feOffset dy="1"/>
<feGaussianBlur stdDeviation="0.5"/>
<feColorMatrix type="matrix" values="0 0 0 0 0 0 0 0 0 0 0 0 0 0 0 0 0 0 0.26 0"/>
<feBlend mode="normal" in2="BackgroundImageFix" result="effect1_dropShadow"/>
<feBlend mode="normal" in="SourceGraphic" in2="effect1_dropShadow" result="shape"/>
</filter>
<filter id="filter1_d" x="0.924927" y="3.82642" width="10.2447" height="12.6888" filterUnits="userSpaceOnUse" color-interpolation-filters="sRGB">
<feFlood flood-opacity="0" result="BackgroundImageFix"/>
<feColorMatrix in="SourceAlpha" type="matrix" values="0 0 0 0 0 0 0 0 0 0 0 0 0 0 0 0 0 0 127 0"/>
<feOffset dy="4"/>
<feGaussianBlur stdDeviation="2"/>
<feColorMatrix type="matrix" values="0 0 0 0 0 0 0 0 0 0 0 0 0 0 0 0 0 0 0.25 0"/>
<feBlend mode="normal" in2="BackgroundImageFix" result="effect1_dropShadow"/>
<feBlend mode="normal" in="SourceGraphic" in2="effect1_dropShadow" result="shape"/>
</filter>
<filter id="filter2_d" x="0.847778" y="12.0261" width="10.2447" height="12.6888" filterUnits="userSpaceOnUse" color-interpolation-filters="sRGB">
<feFlood flood-opacity="0" result="BackgroundImageFix"/>
<feColorMatrix in="SourceAlpha" type="matrix" values="0 0 0 0 0 0 0 0 0 0 0 0 0 0 0 0 0 0 127 0"/>
<feOffset dy="4"/>
<feGaussianBlur stdDeviation="2"/>
<feColorMatrix type="matrix" values="0 0 0 0 0 0 0 0 0 0 0 0 0 0 0 0 0 0 0.25 0"/>
<feBlend mode="normal" in2="BackgroundImageFix" result="effect1_dropShadow"/>
<feBlend mode="normal" in="SourceGraphic" in2="effect1_dropShadow" result="shape"/>
</filter>
<linearGradient id="paint0_linear" x1="-4.68727" y1="8.88181" x2="38.6902" y2="9.88476" gradientUnits="userSpaceOnUse">
<stop stop-color="#FF0000"/>
<stop offset="0.625" stop-color="#FF0034"/>
<stop offset="1" stop-color="#FF0000"/>
</linearGradient>
</defs>
</svg>
