<svg width="1036" height="267" viewBox="0 0 1036 267" fill="none" xmlns="http://www.w3.org/2000/svg">
<path d="M302.912 65.016V85.176H277.136V171H256.256V85.176H231.488V65.016H302.912ZM373.087 108.072V171H352.927V163.224C346.879 169.56 339.871 172.728 331.903 172.728C322.591 172.728 315.007 169.944 309.151 164.376C303.391 158.808 300.511 150.552 300.511 139.608C300.511 132.696 301.903 126.648 304.687 121.464C307.567 116.184 311.359 112.104 316.063 109.224C320.767 106.344 325.807 104.904 331.183 104.904C336.751 104.904 341.167 105.768 344.431 107.496C347.695 109.128 350.575 111.48 353.071 114.552L354.367 108.072H373.087ZM337.663 156.312C344.671 156.312 349.759 153.144 352.927 146.808V131.4C351.775 128.328 349.759 125.88 346.879 124.056C344.095 122.232 340.783 121.32 336.943 121.32C332.527 121.32 328.735 122.952 325.567 126.216C322.495 129.48 320.959 133.608 320.959 138.6C320.959 141.864 321.727 144.888 323.263 147.672C324.799 150.36 326.815 152.472 329.311 154.008C331.903 155.544 334.687 156.312 337.663 156.312ZM464.276 108.072V171C464.276 176.952 462.548 182.328 459.092 187.128C455.732 192.024 451.124 195.816 445.268 198.504C439.508 201.288 433.22 202.68 426.404 202.68C421.22 202.68 416.66 202.056 412.724 200.808C408.884 199.56 405.764 198.168 403.364 196.632C401.06 195.096 398.276 192.984 395.012 190.296L406.82 176.472C409.7 179.16 412.532 181.272 415.316 182.808C418.196 184.344 421.796 185.112 426.116 185.112C431.204 185.112 435.476 183.816 438.932 181.224C442.388 178.728 444.116 175.224 444.116 170.712V161.784C442.196 165.048 439.22 167.688 435.188 169.704C431.252 171.72 426.404 172.728 420.644 172.728C414.98 172.728 409.7 171.288 404.804 168.408C400.004 165.432 396.164 161.4 393.284 156.312C390.404 151.128 388.964 145.416 388.964 139.176C388.964 132.84 390.452 127.032 393.428 121.752C396.5 116.472 400.484 112.344 405.38 109.368C410.372 106.392 415.604 104.904 421.076 104.904C426.26 104.904 430.868 105.672 434.9 107.208C438.932 108.648 442.004 110.568 444.116 112.968L445.7 108.072H464.276ZM426.692 156.312C434.756 156.312 440.564 153.144 444.116 146.808V131.4C442.772 128.328 440.516 125.88 437.348 124.056C434.276 122.232 430.724 121.32 426.692 121.32C421.796 121.32 417.668 122.952 414.308 126.216C410.948 129.48 409.268 133.608 409.268 138.6C409.268 143.592 410.948 147.816 414.308 151.272C417.668 154.632 421.796 156.312 426.692 156.312ZM550.073 108.072L509.465 201.24H490.025L505.145 167.688L476.057 108.072H498.665L515.225 145.224L531.929 108.072H550.073ZM554.199 138.744C554.199 132.312 555.687 126.552 558.663 121.464C561.735 116.376 566.007 112.392 571.479 109.512C577.047 106.536 583.335 105.048 590.343 105.048C597.351 105.048 603.495 106.536 608.775 109.512C614.151 112.392 618.279 116.376 621.159 121.464C624.039 126.552 625.479 132.312 625.479 138.744C625.479 145.176 624.039 150.984 621.159 156.168C618.279 161.352 614.151 165.432 608.775 168.408C603.495 171.288 597.255 172.728 590.055 172.728C583.047 172.728 576.807 171.384 571.335 168.696C565.959 165.912 561.735 161.976 558.663 156.888C555.687 151.8 554.199 145.752 554.199 138.744ZM574.503 138.888C574.503 143.88 575.943 148.056 578.823 151.416C581.703 154.68 585.351 156.312 589.767 156.312C594.375 156.312 598.071 154.68 600.855 151.416C603.735 148.152 605.175 143.976 605.175 138.888C605.175 133.8 603.735 129.624 600.855 126.36C598.071 123.096 594.375 121.464 589.767 121.464C585.351 121.464 581.703 123.144 578.823 126.504C575.943 129.768 574.503 133.896 574.503 138.888ZM704.72 108.072V171H686.432L684.992 160.92C682.784 164.952 679.664 168.168 675.632 170.568C671.696 172.872 667.04 174.024 661.664 174.024C655.904 174.024 651.104 172.248 647.264 168.696C643.424 165.144 641.456 160.632 641.36 155.16V108.072H661.52V147.672C661.808 153.816 664.64 156.888 670.016 156.888C674.432 156.888 677.936 154.728 680.528 150.408C683.216 146.088 684.56 140.52 684.56 133.704V108.072H704.72ZM745.182 122.472C746.91 119.112 749.262 116.088 752.238 113.4C755.31 110.712 758.43 108.648 761.598 107.208C764.766 105.672 767.262 104.904 769.086 104.904L768.078 125.064C767.502 124.968 766.686 124.92 765.63 124.92C761.598 124.92 758.046 125.976 754.974 128.088C751.902 130.2 749.55 132.936 747.918 136.296C746.286 139.56 745.47 142.92 745.47 146.376V171H725.454V108.072H743.598L745.182 122.472ZM810.58 80.424V107.784H825.844V123.48H810.58V171H790.42V123.48H780.628V107.784H790.42V80.424H810.58ZM908.868 108.072V171H888.708V163.224C882.66 169.56 875.652 172.728 867.684 172.728C858.372 172.728 850.788 169.944 844.932 164.376C839.172 158.808 836.292 150.552 836.292 139.608C836.292 132.696 837.684 126.648 840.468 121.464C843.348 116.184 847.14 112.104 851.844 109.224C856.548 106.344 861.588 104.904 866.964 104.904C872.532 104.904 876.948 105.768 880.212 107.496C883.476 109.128 886.356 111.48 888.852 114.552L890.148 108.072H908.868ZM873.444 156.312C880.452 156.312 885.54 153.144 888.708 146.808V131.4C887.556 128.328 885.54 125.88 882.66 124.056C879.876 122.232 876.564 121.32 872.724 121.32C868.308 121.32 864.516 122.952 861.348 126.216C858.276 129.48 856.74 133.608 856.74 138.6C856.74 141.864 857.508 144.888 859.044 147.672C860.58 150.36 862.596 152.472 865.092 154.008C867.684 155.544 870.468 156.312 873.444 156.312ZM969.241 171L954.697 152.136L941.449 171H921.433L944.761 139.32L920.713 108.072H945.481L959.305 126.216L970.105 108.072H990.121L968.521 138.168L993.577 171H969.241ZM1025.6 108.072V171H1005.44V108.072H1025.6ZM1005.01 85.752C1005.01 82.872 1006.11 80.472 1008.32 78.552C1010.62 76.536 1013.21 75.528 1016.09 75.528C1018.88 75.528 1021.37 76.536 1023.58 78.552C1025.79 80.472 1026.89 82.872 1026.89 85.752C1026.89 88.632 1025.79 91.032 1023.58 92.952C1021.37 94.872 1018.88 95.832 1016.09 95.832C1013.21 95.832 1010.62 94.872 1008.32 92.952C1006.11 91.032 1005.01 88.632 1005.01 85.752Z" fill="white"/>
<path d="M0 0H30.8436L30.8433 152.983C32.694 173.34 49.8833 185.677 69.3977 185.677C88.9122 185.677 105.793 173.34 107.952 152.983V112.27H138.178V148.665C138.178 186.481 106.905 217.137 69.0891 217.137C33.9858 217.137 4.04686 191.339 0 157.301V0Z" fill="white"/>
<path d="M138.178 104.867V73.4072L38.246 73.4072V152.983C40.4048 168.713 53.9797 178.275 69.3977 178.275C84.8158 178.275 98.6987 168.713 100.549 152.983V112.27H72.7903V148.665C72.7903 150.709 71.1332 152.366 69.0891 152.366C67.045 152.366 65.3879 150.709 65.3879 148.665V104.867H138.178Z" fill="white"/>
<path d="M68.4722 0H38.246V66.0048L138.178 66.0048V35.1614H68.4722V0Z" fill="white"/>
<path fill-rule="evenodd" clip-rule="evenodd" d="M28.9424 213.701L18.5063 232.479L45.2175 247.901L59.049 223.944C48.5577 222.525 38.2045 218.955 28.9424 213.701ZM70.3645 193.159C70.0431 193.166 69.7209 193.169 69.398 193.169C60.1858 193.169 51.4915 190.42 44.6846 185.375L46.5738 181.976L70.3645 193.159ZM68.1055 224.623L51.628 251.578L78.3391 267L109.551 212.938C97.8366 220.384 83.7426 224.629 69.0896 224.629C68.7617 224.629 68.4337 224.627 68.1055 224.623ZM99.3697 180.441C96.9055 183.234 94.0083 185.606 90.7872 187.518L95.3063 180.125L99.3697 180.441Z" fill="white"/>
</svg>
