<?xml version="1.0" encoding="utf-8"?>
<!-- Generator: Adobe Illustrator 23.0.1, SVG Export Plug-In . SVG Version: 6.00 Build 0)  -->
<svg version="1.1" id="Layer_1" xmlns="http://www.w3.org/2000/svg" xmlns:xlink="http://www.w3.org/1999/xlink" x="0px" y="0px"
	 viewBox="0 0 184 267" style="enable-background:new 0 0 184 267;" xml:space="preserve">
<style type="text/css">
	.st0{fill:#FFFFFF;}
	.st1{fill-rule:evenodd;clip-rule:evenodd;fill:#FFFFFF;}
</style>
<path class="st0" d="M0,0h30.8l0,153c1.9,20.4,19,32.7,38.6,32.7c19.5,0,36.4-12.3,38.6-32.7v-40.7h30.2v36.4
	c0,37.8-31.3,68.5-69.1,68.5C34,217.1,4,191.3,0,157.3V0z"/>
<path class="st0" d="M138.2,104.9V73.4H38.2V153c2.2,15.7,15.7,25.3,31.2,25.3c15.4,0,29.3-9.6,31.2-25.3v-40.7H72.8v36.4
	c0,2-1.7,3.7-3.7,3.7c-2,0-3.7-1.7-3.7-3.7v-43.8H138.2z"/>
<path class="st0" d="M68.5,0H38.2v66h99.9V35.2H68.5V0z"/>
<path class="st1" d="M28.9,213.7l-10.4,18.8l26.7,15.4l13.8-24C48.6,222.5,38.2,219,28.9,213.7z M70.4,193.2c-0.3,0-0.6,0-1,0
	c-9.2,0-17.9-2.7-24.7-7.8l1.9-3.4L70.4,193.2z M68.1,224.6l-16.5,27L78.3,267l31.2-54.1c-11.7,7.4-25.8,11.7-40.5,11.7
	C68.8,224.6,68.4,224.6,68.1,224.6z M99.4,180.4c-2.5,2.8-5.4,5.2-8.6,7.1l4.5-7.4L99.4,180.4z"/>
</svg>
