<?xml version="1.0"?>
<svg xmlns="http://www.w3.org/2000/svg" xmlns:xlink="http://www.w3.org/1999/xlink" version="1.1" id="Capa_1" x="0px" y="0px" viewBox="0 0 46.442 46.442" style="enable-background:new 0 0 46.442 46.442;" xml:space="preserve" width="512px" height="512px"><g><g>
	<path d="M44.953,27.417c-0.141-0.491-0.24-1.095-0.309-1.653c-0.48-3.932-4.365-5.715-7.232-7.755   c-3.285-2.336-6.549-4.593-10.045-6.608C22.383,8.527,16.12,8.896,10.563,9.299C9.482,9.377,8.197,9.457,7.23,10.008   c-1.116,0.636,0.745,0.41,0.83,1.062c0.085,0.658-0.795,1.818-1.059,2.402c-0.398,0.881-0.77,1.778-1.264,2.612   c-0.342,0.578-1.783,2.771-1.73,0.868c0.032-1.14,0.602-2.206,1.083-3.212c0.255-0.534,1.216-1.836,0.996-2.439   c-0.142-0.389-0.498-0.55-0.522-0.528c-0.3,0.278-0.469,0.982-0.64,1.345c-0.347,0.74-0.71,1.471-1.063,2.208   c-0.746,1.559-1.455,3.166-1.721,4.886c-0.193,1.252-0.093,2.531-0.462,3.755c-0.326,1.082-0.905,2.084-1.152,3.192   c-0.109,0.485-0.953,3.019-0.246,3.324c0.361,0.157,0.696-0.482,0.818-0.731c-1.747,3.581-0.149,8.247,4.258,8.641   c2.904,0.259,4.923-1.729,6.001-4.213c0.683,0.557,2.035,0.399,2.869,0.399c5.468,0.006,10.938,0,16.404,0   c1.564,0,3.098-0.368,3.333-2.161c0.19,1.632,0.546,3.106,1.735,4.312c1.352,1.371,3.662,2.009,5.461,1.332   c1.763-0.663,2.973-2.288,3.871-3.872c0.02,0.1,0.098,0.196,0.119,0.29c1.945-0.811,1.373-4.186,0.389-5.489   C45.45,27.869,44.989,27.535,44.953,27.417z M9.137,32.087c-0.002,0.022-0.004,0.044-0.007,0.065   c-0.479,4.06-6.895,3.549-6.525-0.662c0.019-0.221,0.062-0.432,0.121-0.633c0.02-0.068,0.052-0.131,0.076-0.193   C2.85,30.533,2.897,30.4,2.96,30.279c0.038-0.074,0.087-0.141,0.131-0.209c0.065-0.104,0.128-0.211,0.204-0.309   c0.054-0.066,0.117-0.127,0.176-0.189c0.079-0.086,0.157-0.172,0.245-0.248c0.068-0.061,0.142-0.109,0.214-0.162   c0.091-0.066,0.183-0.135,0.281-0.191c0.079-0.047,0.162-0.084,0.245-0.123c0.102-0.05,0.203-0.097,0.31-0.135   c0.088-0.031,0.179-0.055,0.269-0.078c0.11-0.028,0.22-0.055,0.334-0.072c0.094-0.014,0.19-0.021,0.286-0.024   c0.162-0.012,0.325-0.021,0.492-0.006C7.919,28.688,9.3,30.366,9.137,32.087z M33.616,19.48l-21.178-1.723   c-1.236-0.101-2.288-1.193-2.131-2.424c0.224-1.759,0.87-3.995,2.678-4.521c1.837-0.533,4.592-0.431,6.519-0.261   c1.236,0.109,3.194,0.554,4.358,0.983c2.885,1.063,7.991,3.257,10.717,6.287C35.407,18.744,34.851,19.58,33.616,19.48z    M42.841,32.084c-0.021,0.213-0.06,0.419-0.117,0.615c-0.021,0.068-0.056,0.135-0.08,0.203c-0.047,0.127-0.092,0.256-0.153,0.377   c-0.039,0.072-0.091,0.142-0.134,0.213c-0.063,0.104-0.127,0.207-0.2,0.303c-0.056,0.068-0.117,0.131-0.179,0.193   c-0.078,0.084-0.155,0.17-0.241,0.246c-0.068,0.06-0.146,0.109-0.22,0.164c-0.09,0.063-0.181,0.133-0.274,0.188   c-0.08,0.048-0.166,0.086-0.25,0.126c-0.101,0.049-0.199,0.096-0.306,0.133c-0.09,0.031-0.183,0.059-0.274,0.08   c-0.104,0.026-0.215,0.053-0.324,0.069c-0.098,0.017-0.194,0.021-0.297,0.024c-0.159,0.013-0.317,0.021-0.483,0.009   c-1.798-0.158-3.123-1.744-2.966-3.539c0.021-0.222,0.062-0.433,0.119-0.636c0.021-0.065,0.056-0.129,0.078-0.192   c0.047-0.131,0.096-0.265,0.158-0.385c0.036-0.074,0.088-0.142,0.131-0.211c0.063-0.104,0.127-0.212,0.203-0.306   c0.055-0.067,0.116-0.129,0.178-0.19c0.078-0.086,0.156-0.175,0.244-0.248c0.065-0.062,0.146-0.108,0.215-0.162   c0.092-0.065,0.185-0.138,0.279-0.19c0.077-0.048,0.161-0.084,0.243-0.125c0.103-0.05,0.203-0.097,0.312-0.135   c0.09-0.029,0.183-0.056,0.271-0.076c0.109-0.029,0.223-0.058,0.334-0.072c0.096-0.016,0.189-0.021,0.287-0.025   c0.162-0.01,0.324-0.021,0.49-0.006c1.797,0.158,3.121,1.746,2.965,3.539C42.843,32.074,42.841,32.078,42.841,32.084z" data-original="#010002" class="active-path" data-old_color="#010002" fill="#FFFFFF"/>
</g></g> </svg>
