<?xml version="1.0"?>
<svg xmlns="http://www.w3.org/2000/svg" id="Capa_1" enable-background="new 0 0 512 512" height="512px" viewBox="0 0 512 512" width="512px"><g><g><circle cx="256" cy="37.5" r="6" data-original="#000000" class="active-path" data-old_color="#000000" fill="#FFFFFF"/><path d="m391 0h-270c-20.678 0-37.5 16.822-37.5 37.5v437c0 20.678 16.822 37.5 37.5 37.5h270c20.678 0 37.5-16.822 37.5-37.5v-437c0-20.678-16.822-37.5-37.5-37.5zm22.5 474.5c0 12.407-10.094 22.5-22.5 22.5h-270c-12.406 0-22.5-10.093-22.5-22.5v-437c0-12.407 10.094-22.5 22.5-22.5h270c12.406 0 22.5 10.093 22.5 22.5z" data-original="#000000" class="active-path" data-old_color="#000000" fill="#FFFFFF"/><path d="m286 437h-60c-12.406 0-22.5 10.093-22.5 22.5s10.094 22.5 22.5 22.5h60c12.406 0 22.5-10.093 22.5-22.5s-10.094-22.5-22.5-22.5zm0 30h-60c-4.136 0-7.5-3.364-7.5-7.5s3.364-7.5 7.5-7.5h60c4.136 0 7.5 3.364 7.5 7.5s-3.364 7.5-7.5 7.5z" data-original="#000000" class="active-path" data-old_color="#000000" fill="#FFFFFF"/><path d="m391 30h-92.574c-1.989 0-3.896.79-5.304 2.197l-21.2 21.201c-4.277 4.257-9.932 6.602-15.922 6.602-5.993 0-11.637-2.341-15.893-6.593-.035-.036-13.158-13.139-21.229-21.21-1.407-1.407-3.315-2.197-5.304-2.197h-92.574c-4.143 0-7.5 3.358-7.5 7.5v173.5c0 4.142 3.357 7.5 7.5 7.5s7.5-3.358 7.5-7.5v-166h81.968s18.2 18.189 19.076 18.981l-.038.038c7.089 7.081 16.497 10.981 26.494 10.981 9.983 0 19.396-3.896 26.517-10.984l19.015-19.016h81.968v362h-255v-166c0-4.142-3.357-7.5-7.5-7.5s-7.5 3.358-7.5 7.5v173.5c0 4.142 3.357 7.5 7.5 7.5h270c4.143 0 7.5-3.358 7.5-7.5v-377c0-4.142-3.357-7.5-7.5-7.5z" data-original="#000000" class="active-path" data-old_color="#000000" fill="#FFFFFF"/></g></g> </svg>
