<?xml version="1.0"?>
<svg xmlns="http://www.w3.org/2000/svg" xmlns:xlink="http://www.w3.org/1999/xlink" version="1.1" id="Capa_1" x="0px" y="0px" viewBox="0 0 512 512" style="enable-background:new 0 0 512 512;" xml:space="preserve" width="512px" height="512px"><g><g>
	<g>
		<path d="M96,277.333c-29.397,0-53.333,23.936-53.333,53.333S66.603,384,96,384s53.333-23.936,53.333-53.333    S125.397,277.333,96,277.333z M96,362.667c-17.643,0-32-14.357-32-32c0-17.643,14.357-32,32-32c17.643,0,32,14.357,32,32    C128,348.309,113.643,362.667,96,362.667z" data-original="#000000" class="active-path" data-old_color="#000000" fill="#FFFFFF"/>
	</g>
</g><g>
	<g>
		<path d="M416,277.333c-29.397,0-53.333,23.936-53.333,53.333S386.603,384,416,384s53.333-23.936,53.333-53.333    S445.397,277.333,416,277.333z M416,362.667c-17.643,0-32-14.357-32-32c0-17.643,14.357-32,32-32c17.643,0,32,14.357,32,32    C448,348.309,433.643,362.667,416,362.667z" data-original="#000000" class="active-path" data-old_color="#000000" fill="#FFFFFF"/>
	</g>
</g><g>
	<g>
		<path d="M448,213.333h-18.027c-6.613,0-13.077-2.261-18.219-6.4l-84.053-67.243C318.251,132.16,306.432,128,294.357,128H140.16    c-17.877,0-34.453,8.875-44.373,23.744l-18.155,27.264C72.192,187.136,63.104,192,53.333,192C23.936,192,0,215.936,0,245.333V288    c0,29.397,23.936,53.333,53.333,53.333c0.512,0,0.939-0.213,1.429-0.277c-0.853-3.349-1.429-6.784-1.429-10.389    C53.333,307.093,72.427,288,96,288c23.573,0,42.667,19.093,42.667,42.667c0,3.605-0.576,7.04-1.429,10.389    c0.491,0.064,0.917,0.277,1.429,0.277h234.667c0.512,0,0.939-0.213,1.429-0.277c-0.853-3.349-1.429-6.784-1.429-10.389    C373.333,307.093,392.427,288,416,288c23.573,0,42.667,19.093,42.667,42.667c0,3.605-0.576,7.04-1.429,10.389    c0.491,0.064,0.917,0.277,1.429,0.277C489.067,341.333,512,318.4,512,288C512,251.797,489.579,213.333,448,213.333z     M202.667,234.667h-85.333c-3.691,0-7.125-1.92-9.067-5.056s-2.133-7.083-0.469-10.368l21.333-42.667    c2.645-5.291,9.024-7.403,14.315-4.779c5.269,2.645,7.403,9.045,4.779,14.315l-13.632,27.221h68.075    c5.888,0,10.667,4.779,10.667,10.667S208.555,234.667,202.667,234.667z M288,277.333h-21.333c-5.888,0-10.667-4.779-10.667-10.667    S260.779,256,266.667,256H288c5.888,0,10.667,4.779,10.667,10.667S293.888,277.333,288,277.333z M352,234.667H245.333    c-5.888,0-10.667-4.779-10.667-10.667v-42.667c0-5.888,4.779-10.667,10.667-10.667S256,175.445,256,181.333v32h96    c5.888,0,10.667,4.779,10.667,10.667S357.888,234.667,352,234.667z" data-original="#000000" class="active-path" data-old_color="#000000" fill="#FFFFFF"/>
	</g>
</g></g> </svg>
