<?xml version="1.0"?>
<svg xmlns="http://www.w3.org/2000/svg" id="Layer_1" height="512px" viewBox="0 0 512 512" width="512px" data-name="Layer 1"><g><path d="m165 145.062-64.113-.062h-.087a23.7 23.7 0 0 0 -23.8 23.842v47.158h88z" data-original="#000000" class="active-path" data-old_color="#000000" fill="#FFFFFF"/><path d="m379.171 215.729-46.224-57.487a34.041 34.041 0 0 0 -26.467-12.69l-38.48-.132v70.58h111.388c-.074 0-.148-.185-.217-.271z" data-original="#000000" class="active-path" data-old_color="#000000" fill="#FFFFFF"/><circle cx="161.714" cy="327.851" r="39.307" data-original="#000000" class="active-path" data-old_color="#000000" fill="#FFFFFF"/><circle cx="398.163" cy="327.851" r="39.307" data-original="#000000" class="active-path" data-old_color="#000000" fill="#FFFFFF"/><path d="m177 216h79v-70.622l-79-.274z" data-original="#000000" class="active-path" data-old_color="#000000" fill="#FFFFFF"/><path d="m459.064 228h-52.142a37.5 37.5 0 0 1 -3.922-.231v.231h-135v98h78.915a51.3 51.3 0 0 1 102.5 0h41.585v-66.371a31.9 31.9 0 0 0 -31.936-31.629z" data-original="#000000" class="active-path" data-old_color="#000000" fill="#FFFFFF"/><path d="m77 326h33.465a51.3 51.3 0 0 1 102.5 0h43.035v-98h-179z" data-original="#000000" class="active-path" data-old_color="#000000" fill="#FFFFFF"/><path d="m21 218h26v97h-26z" data-original="#000000" class="active-path" data-old_color="#000000" fill="#FFFFFF"/></g> </svg>
