<svg width="62" height="59" viewBox="0 0 62 59" fill="none" xmlns="http://www.w3.org/2000/svg">
<path d="M1 58H61.7305V58.5H1V58Z" fill="#0B4DD8"/>
<path d="M3.80409 56.2838C5.54309 55.3508 7.27009 54.3878 9.05209 53.5418C10.7811 52.7148 12.5681 52.0068 14.3361 51.2588C15.9991 50.5618 17.6811 49.8998 19.3331 49.1808C19.6151 49.0578 19.9021 48.7548 20.0201 48.4668C20.3881 47.5458 20.7021 46.5878 20.9941 45.6338C21.2151 44.9128 21.3581 44.1988 22.2871 44.0078C22.5201 43.9598 22.8081 43.5588 22.8431 43.2838C23.0321 41.8968 23.1751 40.5018 23.2711 39.0998C23.2941 38.8038 23.1401 38.4198 22.9371 38.1928C21.7131 36.8238 21.0401 35.2458 20.7571 33.4298C20.6141 32.5198 20.1081 31.6778 19.8431 30.7818C19.4951 29.5778 19.2051 28.3638 18.9291 27.1398C18.8291 26.7008 18.8871 26.2248 18.8151 25.7758C18.7081 25.1198 18.7281 24.6118 19.5171 24.3598C19.7351 24.2898 19.9171 23.7688 19.9241 23.4488C19.9641 21.5008 19.9381 19.5508 19.9491 17.6018C19.9591 16.4068 19.9471 15.2058 20.0331 14.0118C20.2011 11.7258 21.5421 10.1138 23.2241 8.72883C25.6791 6.70283 28.6201 5.75983 31.6421 5.04183C33.2271 4.66983 34.8441 4.44183 36.4591 4.18483C36.8881 4.11483 37.3351 4.17283 37.7751 4.17283C37.8451 4.28583 37.9191 4.39583 37.9941 4.50683C37.6541 4.74983 37.2801 4.95483 36.9881 5.24483C36.3311 5.90183 36.3951 6.36383 37.1001 6.95583C38.5551 8.19083 40.0151 9.42383 41.4311 10.7018C42.6771 11.8218 43.1621 13.2908 43.1641 14.9398C43.1671 17.7778 43.1691 20.6148 43.1671 23.4558C43.1641 24.0378 43.1231 24.6098 43.8451 24.8678C43.9971 24.9218 44.1591 25.2408 44.1461 25.4238C44.0231 26.8768 43.8681 28.3278 43.7121 29.7778C43.7071 29.8328 43.6931 29.8998 43.6621 29.9398C42.3571 31.8438 42.1881 34.1818 41.2581 36.2278C41.2191 36.3058 41.2031 36.3968 41.1441 36.4608C39.4151 38.4998 39.9541 40.9488 39.9211 43.2898C39.9161 43.5268 40.0851 43.9008 40.2761 43.9778C40.9861 44.2898 41.1571 44.8978 41.3531 45.5388C41.6611 46.5498 41.9661 47.5638 42.3981 48.5218C42.5551 48.8778 43.0321 49.1768 43.4261 49.3258C48.7481 51.3688 54.0171 53.5338 59.0971 56.1368C60.1131 56.6618 60.9891 57.3008 61.7271 58.0628V0.527832C41.4761 0.527832 21.2341 0.527832 0.996094 0.527832V58.2028C1.81809 57.4428 2.77709 56.8338 3.80409 56.2838Z" fill="#0B4DD8"/>
</svg>
